<svg width="2759" height="750" viewBox="0 0 2759 750" fill="none" xmlns="http://www.w3.org/2000/svg">
<path d="M427.578 524.348V98.6585H559.739V159.542H493.411V463.465H559.739V524.348H427.578ZM2331.38 98.6585V524.348H2199.22V463.465H2265.55V159.542H2199.22V98.6585H2331.38Z" fill="#2ECFCC"/>
<path d="M735.994 202.606C804.797 202.111 854.296 253.095 854.296 333.283C854.296 412.481 804.797 462.97 736.489 462.97C701.345 462.97 676.1 448.615 659.766 427.826V558.998H589.972V205.576H650.856L657.786 240.72C674.12 218.941 699.86 202.606 735.994 202.606ZM720.649 406.046C758.763 406.046 783.513 375.852 783.513 332.293C783.513 289.229 758.763 259.53 720.649 259.53C682.535 259.53 658.776 289.229 658.776 332.293C658.776 375.852 682.535 406.046 720.649 406.046ZM954.23 461.485L856.222 205.576H930.47L992.344 386.742L1052.73 205.576H1127.48L1014.62 496.134C998.779 538.208 985.909 558.998 946.31 558.998H878.496V500.094H917.105C934.925 500.094 940.865 495.639 947.795 478.315L954.23 461.485ZM1175.78 387.237V264.48H1133.71V205.576H1175.78V134.298H1245.58V205.576H1303.99V264.48H1245.58V375.852C1245.58 393.672 1252.51 401.096 1270.82 401.096H1305.47V460H1248.55C1200.04 460 1175.78 435.746 1175.78 387.237ZM1482.8 202.606C1539.23 202.606 1585.76 232.8 1585.76 318.928V460H1515.97V324.868C1515.97 283.289 1499.14 260.025 1464.49 260.025C1428.85 260.025 1407.57 285.764 1407.57 329.323V460H1337.77V113.508H1407.57V236.76C1423.9 216.961 1446.67 202.606 1482.8 202.606ZM1753.01 462.97C1671.84 462.97 1618.87 410.996 1618.87 332.788C1618.87 254.58 1671.84 202.606 1753.01 202.606C1834.19 202.606 1887.15 254.58 1887.15 332.788C1887.15 411.491 1834.19 462.97 1753.01 462.97ZM1753.01 406.046C1792.12 406.046 1816.37 375.852 1816.37 332.788C1816.37 289.724 1792.12 259.53 1753.01 259.53C1713.91 259.53 1690.15 289.724 1690.15 332.788C1690.15 375.852 1713.91 406.046 1753.01 406.046ZM2071.59 202.606C2126.54 202.606 2173.56 231.81 2173.56 318.928V460H2103.77V325.858C2103.77 282.794 2087.43 260.025 2052.29 260.025C2016.15 260.025 1995.36 285.764 1995.36 329.818V460H1925.57V205.576H1986.45L1992.89 237.255C2009.22 217.456 2032.49 202.606 2071.59 202.606Z" fill="white"/>
<path fill-rule="evenodd" clip-rule="evenodd" d="M1750.29 711.381H1773.26L1751.06 628.271L1766.89 600.702H1743.67L1733.89 564H1711.24L1626 711.381H1651.73L1719.16 595.113L1727.27 625.19L1677.47 711.381H1703.2L1735.38 655.719L1750.3 711.381L1750.29 711.381ZM1806.14 711.515V600.58H1783.68V711.515H1806.14ZM1898.59 711.648V636.637L1875.94 636.832V640.814C1869.52 636.881 1862.1 634.859 1854.58 634.969C1849.63 634.823 1844.71 635.699 1840.12 637.526C1835.53 639.353 1831.36 642.105 1827.87 645.599C1824.39 649.094 1821.65 653.271 1819.84 657.862C1818.02 662.453 1817.17 667.372 1817.33 672.304C1817.6 681.973 1821.65 691.142 1828.62 697.864C1835.58 704.586 1844.9 708.3 1854.58 708.227C1862.12 708.361 1869.53 706.339 1875.94 702.381V711.515C1876.14 713.779 1875.85 716.069 1875.07 718.2C1874.31 720.343 1873.06 722.292 1871.46 723.899C1869.85 725.506 1867.91 726.748 1865.77 727.528C1863.63 728.307 1861.35 728.612 1859.07 728.416C1849.74 728.416 1842.73 724.813 1841.83 716.909H1819.31C1820.86 736.185 1836.17 749.179 1858.3 749.179C1880.44 749.179 1898.58 734.907 1898.58 711.648H1898.59ZM1875.94 662.538V680.852C1874.09 683.726 1871.49 686.052 1868.45 687.611C1865.39 689.157 1861.98 689.864 1858.57 689.669C1853.81 689.742 1849.21 687.976 1845.73 684.749C1842.24 681.522 1840.14 677.065 1839.86 672.316C1839.71 669.82 1840.09 667.311 1840.98 664.973C1841.86 662.635 1843.24 660.504 1845.01 658.739C1846.77 656.961 1848.9 655.585 1851.24 654.696C1853.58 653.807 1856.09 653.417 1858.58 653.551C1862.01 653.454 1865.4 654.221 1868.44 655.804C1871.48 657.375 1874.06 659.701 1875.95 662.55L1875.94 662.538ZM1988.89 673.205C1988.94 681.157 1986.63 688.938 1982.24 695.575C1977.86 702.211 1971.6 707.387 1964.26 710.455C1956.92 713.524 1948.83 714.352 1941.02 712.817C1933.22 711.284 1926.05 707.472 1920.41 701.87C1914.77 696.257 1910.93 689.096 1909.38 681.303C1907.82 673.51 1908.62 665.424 1911.67 658.081C1914.71 650.738 1919.88 644.467 1926.51 640.071C1933.13 635.663 1940.91 633.325 1948.88 633.361C1954.18 633.167 1959.46 634.056 1964.39 635.992C1969.32 637.928 1973.82 640.85 1977.57 644.589C1981.32 648.327 1984.27 652.796 1986.21 657.728C1988.16 662.648 1989.08 667.92 1988.89 673.217V673.205ZM1967.02 673.205C1967.17 670.721 1966.8 668.237 1965.96 665.899C1965.11 663.561 1963.8 661.418 1962.09 659.603C1960.39 657.789 1958.32 656.352 1956.04 655.366C1953.75 654.379 1951.29 653.868 1948.79 653.868C1946.3 653.868 1943.84 654.379 1941.55 655.366C1939.26 656.352 1937.2 657.789 1935.5 659.603C1933.79 661.418 1932.46 663.561 1931.62 665.899C1930.77 668.237 1930.41 670.721 1930.56 673.205C1930.42 675.689 1930.78 678.174 1931.62 680.511C1932.48 682.85 1933.79 684.993 1935.5 686.807C1937.2 688.622 1939.26 690.058 1941.55 691.045C1943.84 692.031 1946.3 692.543 1948.79 692.543C1951.29 692.543 1953.75 692.031 1956.04 691.045C1958.33 690.058 1960.39 688.622 1962.09 686.807C1963.8 684.993 1965.12 682.862 1965.96 680.511C1966.82 678.174 1967.18 675.689 1967.02 673.205ZM2129.4 711.381V636.82H2107.28V640.997C2100.86 636.978 2093.42 634.883 2085.85 634.957C2075.85 635.529 2066.44 639.901 2059.56 647.182C2052.68 654.464 2048.84 664.097 2048.84 674.106C2048.84 684.116 2052.68 693.748 2059.56 701.018C2066.44 708.3 2075.84 712.671 2085.85 713.244C2093.42 713.318 2100.86 711.222 2107.28 707.204V711.381H2129.4ZM2107.08 662.855V685.602C2105.1 688.451 2102.41 690.74 2099.28 692.25C2096.14 693.748 2092.67 694.406 2089.21 694.162C2083.91 694.162 2078.85 692.068 2075.11 688.329C2071.37 684.591 2069.26 679.525 2069.26 674.24C2069.26 668.955 2071.37 663.89 2075.11 660.151C2078.85 656.413 2083.92 654.318 2089.21 654.318C2092.68 654.063 2096.15 654.72 2099.28 656.218C2102.41 657.716 2105.1 660.005 2107.08 662.867V662.855ZM2220.64 671.086V711.515H2198.57V673.717C2198.57 661.442 2192.52 655.073 2181.66 655.073C2178.3 655.341 2175.02 656.328 2172.05 657.959C2169.09 659.591 2166.51 661.82 2164.48 664.523V711.503H2142.34V636.941H2164.66V642.531C2170.75 637.611 2178.37 634.969 2186.21 635.078C2206.1 635.078 2220.64 649.021 2220.64 671.074V671.086ZM2310.77 600.58V711.515H2288.12V707.338C2281.71 711.369 2274.28 713.463 2266.7 713.377C2256.71 712.805 2247.31 708.434 2240.41 701.152C2233.53 693.87 2229.7 684.238 2229.7 674.228C2229.7 664.218 2233.53 654.586 2240.41 647.304C2247.29 640.022 2256.69 635.651 2266.7 635.078C2274.28 634.993 2281.72 637.088 2288.12 641.118V600.556H2310.77V600.58ZM2288.12 685.614V662.672C2286.11 659.871 2283.42 657.618 2280.31 656.133C2277.19 654.647 2273.74 653.977 2270.3 654.184C2264.97 654.184 2259.86 656.303 2256.1 660.054C2252.33 663.817 2250.22 668.919 2250.22 674.228C2250.22 679.537 2252.33 684.652 2256.1 688.402C2259.86 692.165 2264.96 694.272 2270.3 694.272C2273.75 694.467 2277.21 693.772 2280.33 692.25C2283.45 690.728 2286.13 688.439 2288.11 685.589V685.614H2288.12ZM2031.39 658.507C2035.41 656.693 2039.76 655.743 2044.17 655.731V636.832C2040.18 636.235 2036.12 636.454 2032.22 637.453C2028.32 638.464 2024.66 640.229 2021.45 642.677V637.149H1999.13V711.26H2020.88V666.264C2023.79 662.964 2027.39 660.322 2031.39 658.495V658.507Z" fill="white"/>
</svg>
