<svg width="3041" height="716" viewBox="0 0 3041 716" fill="none" xmlns="http://www.w3.org/2000/svg">
<path d="M801.329 413H589.474V66.5082H663.722V349.147H801.329V413ZM870.534 131.352C847.765 131.352 829.945 114.522 829.945 92.2476C829.945 69.4781 847.765 52.6485 870.534 52.6485C893.304 52.6485 911.124 69.4781 911.124 92.2476C911.124 114.522 893.304 131.352 870.534 131.352ZM835.39 413V158.576H905.679V413H835.39ZM1140.43 192.73L1147.36 158.576H1208.24V511.998H1138.45V380.331C1121.62 401.12 1096.87 415.97 1061.73 415.97C993.914 415.97 943.92 366.966 943.92 286.283C943.92 207.58 993.914 155.111 1062.22 155.606C1098.36 155.606 1124.1 170.951 1140.43 192.73ZM1077.57 359.046C1115.68 359.046 1139.44 328.852 1139.44 285.788C1139.44 242.229 1115.68 212.53 1077.57 212.53C1039.45 212.53 1015.2 242.229 1015.2 285.293C1015.2 328.852 1039.45 359.046 1077.57 359.046ZM1426.68 285.788V158.576H1496.48V413H1434.6L1428.17 382.311C1411.84 402.11 1389.56 415.97 1353.43 415.97C1300.96 415.97 1252.45 389.736 1252.45 299.648V158.576H1322.24V290.243C1322.24 335.782 1337.09 358.056 1371.74 358.056C1406.39 358.056 1426.68 332.812 1426.68 285.788ZM1580.15 131.352C1557.38 131.352 1539.56 114.522 1539.56 92.2476C1539.56 69.4781 1557.38 52.6485 1580.15 52.6485C1602.92 52.6485 1620.74 69.4781 1620.74 92.2476C1620.74 114.522 1602.92 131.352 1580.15 131.352ZM1545 413V158.576H1615.29V413H1545ZM1848.06 190.255V66.5082H1917.86V413H1856.97L1850.04 377.856C1833.21 399.635 1808.46 415.97 1771.83 415.97C1703.53 415.97 1653.53 365.976 1653.53 285.293C1653.53 206.59 1703.53 155.606 1771.34 155.606C1806.48 155.606 1831.73 169.466 1848.06 190.255ZM1787.18 359.046C1825.29 359.046 1849.05 329.347 1849.05 286.283C1849.05 242.724 1825.29 212.53 1787.18 212.53C1749.07 212.53 1724.81 242.229 1724.81 285.788C1724.81 329.347 1749.07 359.046 1787.18 359.046Z" fill="white"/>
<path d="M2020.96 413H1944.24L2070.96 66.5082H2160.06L2285.78 413H2206.09L2179.36 337.267H2047.69L2020.96 413ZM2113.03 145.706L2067.49 277.373H2159.07L2113.03 145.706ZM2472.73 285.788V158.576H2542.53V413H2480.65L2474.22 382.311C2457.88 402.11 2435.61 415.97 2399.48 415.97C2347.01 415.97 2298.5 389.736 2298.5 299.648V158.576H2368.29V290.243C2368.29 335.782 2383.14 358.056 2417.79 358.056C2452.44 358.056 2472.73 332.812 2472.73 285.788ZM2611.3 340.237V217.48H2569.23V158.576H2611.3V87.2977H2681.09V158.576H2739.5V217.48H2681.09V328.852C2681.09 346.672 2688.02 354.096 2706.34 354.096H2740.99V413H2684.06C2635.55 413 2611.3 388.746 2611.3 340.237ZM2918.32 155.606C2974.75 155.606 3021.28 185.8 3021.28 271.928V413H2951.48V277.868C2951.48 236.289 2934.66 213.025 2900.01 213.025C2864.37 213.025 2843.08 238.764 2843.08 282.323V413H2773.29V66.5082H2843.08V189.76C2859.42 169.961 2882.19 155.606 2918.32 155.606Z" fill="#A9A9F6"/>
<path fill-rule="evenodd" clip-rule="evenodd" d="M2297.29 677.381H2320.26L2298.06 594.271L2313.89 566.702H2290.67L2280.89 530H2258.24L2173 677.381H2198.73L2266.16 561.113L2274.27 591.19L2224.47 677.381H2250.2L2282.38 621.719L2297.3 677.381L2297.29 677.381ZM2353.14 677.515V566.58H2330.68V677.515H2353.14ZM2445.59 677.648V602.637L2422.94 602.832V606.814C2416.52 602.881 2409.1 600.859 2401.58 600.969C2396.63 600.823 2391.71 601.699 2387.12 603.526C2382.53 605.353 2378.36 608.105 2374.87 611.599C2371.39 615.094 2368.65 619.271 2366.84 623.862C2365.02 628.453 2364.17 633.372 2364.33 638.304C2364.6 647.973 2368.65 657.142 2375.62 663.864C2382.58 670.586 2391.9 674.3 2401.58 674.227C2409.12 674.361 2416.53 672.339 2422.94 668.381V677.515C2423.14 679.779 2422.85 682.069 2422.07 684.2C2421.31 686.343 2420.06 688.292 2418.46 689.899C2416.85 691.506 2414.91 692.748 2412.77 693.528C2410.63 694.307 2408.35 694.612 2406.07 694.416C2396.74 694.416 2389.73 690.813 2388.83 682.909H2366.31C2367.86 702.185 2383.17 715.179 2405.3 715.179C2427.44 715.179 2445.58 700.907 2445.58 677.648H2445.59ZM2422.94 628.538V646.852C2421.09 649.726 2418.49 652.052 2415.45 653.611C2412.39 655.157 2408.98 655.864 2405.57 655.669C2400.81 655.742 2396.21 653.976 2392.73 650.749C2389.24 647.522 2387.14 643.065 2386.86 638.316C2386.71 635.82 2387.09 633.311 2387.98 630.973C2388.86 628.635 2390.24 626.504 2392.01 624.739C2393.77 622.961 2395.9 621.585 2398.24 620.696C2400.58 619.807 2403.09 619.417 2405.58 619.551C2409.01 619.454 2412.4 620.221 2415.44 621.804C2418.48 623.375 2421.06 625.701 2422.95 628.55L2422.94 628.538ZM2535.89 639.205C2535.94 647.157 2533.63 654.938 2529.24 661.575C2524.86 668.211 2518.6 673.387 2511.26 676.455C2503.92 679.524 2495.83 680.352 2488.02 678.817C2480.22 677.284 2473.05 673.472 2467.41 667.87C2461.77 662.257 2457.93 655.096 2456.38 647.303C2454.82 639.51 2455.62 631.424 2458.67 624.081C2461.71 616.738 2466.88 610.467 2473.51 606.071C2480.13 601.663 2487.91 599.325 2495.88 599.361C2501.18 599.167 2506.46 600.056 2511.39 601.992C2516.32 603.928 2520.82 606.85 2524.57 610.589C2528.32 614.327 2531.27 618.796 2533.21 623.728C2535.16 628.648 2536.08 633.92 2535.89 639.217V639.205ZM2514.02 639.205C2514.17 636.721 2513.8 634.237 2512.96 631.899C2512.11 629.561 2510.8 627.418 2509.09 625.603C2507.39 623.789 2505.32 622.352 2503.04 621.366C2500.75 620.379 2498.29 619.868 2495.79 619.868C2493.3 619.868 2490.84 620.379 2488.55 621.366C2486.26 622.352 2484.2 623.789 2482.5 625.603C2480.79 627.418 2479.46 629.561 2478.62 631.899C2477.77 634.237 2477.41 636.721 2477.56 639.205C2477.42 641.689 2477.78 644.174 2478.62 646.511C2479.48 648.85 2480.79 650.993 2482.5 652.807C2484.2 654.622 2486.26 656.058 2488.55 657.045C2490.84 658.031 2493.3 658.543 2495.79 658.543C2498.29 658.543 2500.75 658.031 2503.04 657.045C2505.33 656.058 2507.39 654.622 2509.09 652.807C2510.8 650.993 2512.12 648.862 2512.96 646.511C2513.82 644.174 2514.18 641.689 2514.02 639.205ZM2676.4 677.381V602.82H2654.28V606.997C2647.86 602.978 2640.42 600.883 2632.85 600.957C2622.85 601.529 2613.44 605.901 2606.56 613.182C2599.68 620.464 2595.84 630.097 2595.84 640.106C2595.84 650.116 2599.68 659.748 2606.56 667.018C2613.44 674.3 2622.84 678.671 2632.85 679.244C2640.42 679.318 2647.86 677.222 2654.28 673.204V677.381H2676.4ZM2654.08 628.855V651.602C2652.1 654.451 2649.41 656.74 2646.28 658.25C2643.14 659.748 2639.67 660.406 2636.21 660.162C2630.91 660.162 2625.85 658.068 2622.11 654.329C2618.37 650.591 2616.26 645.525 2616.26 640.24C2616.26 634.955 2618.37 629.89 2622.11 626.151C2625.85 622.413 2630.92 620.318 2636.21 620.318C2639.68 620.063 2643.15 620.72 2646.28 622.218C2649.41 623.716 2652.1 626.005 2654.08 628.867V628.855ZM2767.64 637.086V677.515H2745.57V639.717C2745.57 627.442 2739.52 621.073 2728.66 621.073C2725.3 621.341 2722.02 622.328 2719.05 623.959C2716.09 625.591 2713.51 627.82 2711.48 630.523V677.503H2689.34V602.941H2711.66V608.531C2717.75 603.611 2725.37 600.969 2733.21 601.078C2753.1 601.078 2767.64 615.021 2767.64 637.074V637.086ZM2857.77 566.58V677.515H2835.12V673.338C2828.71 677.369 2821.28 679.463 2813.7 679.377C2803.71 678.805 2794.31 674.434 2787.41 667.152C2780.53 659.87 2776.7 650.238 2776.7 640.228C2776.7 630.218 2780.53 620.586 2787.41 613.304C2794.29 606.022 2803.69 601.651 2813.7 601.078C2821.28 600.993 2828.72 603.088 2835.12 607.118V566.556H2857.77V566.58ZM2835.12 651.614V628.672C2833.11 625.871 2830.42 623.618 2827.31 622.133C2824.19 620.647 2820.74 619.977 2817.3 620.184C2811.97 620.184 2806.86 622.303 2803.1 626.054C2799.33 629.817 2797.22 634.919 2797.22 640.228C2797.22 645.537 2799.33 650.652 2803.1 654.402C2806.86 658.165 2811.96 660.272 2817.3 660.272C2820.75 660.467 2824.21 659.772 2827.33 658.25C2830.45 656.728 2833.13 654.439 2835.11 651.589V651.614H2835.12ZM2578.39 624.507C2582.41 622.693 2586.76 621.743 2591.17 621.731V602.832C2587.18 602.235 2583.12 602.454 2579.22 603.453C2575.32 604.464 2571.66 606.229 2568.45 608.677V603.149H2546.13V677.26H2567.88V632.264C2570.79 628.964 2574.39 626.322 2578.39 624.495V624.507Z" fill="white"/>
<path d="M245.38 715C110.081 715 0 606.406 0 472.948C0 317.07 218.123 21.572 227.395 9.0505C231.606 3.40576 238.191 0.0458085 245.224 0.00100907C253.039 -0.0661901 258.907 3.22657 263.185 8.8041C272.571 21.0792 493 311.357 493 472.948C493 606.429 381.912 715 245.38 715ZM245.627 60.5026C193.553 134.466 44.7938 355.933 44.7938 472.948C44.7938 581.7 134.784 670.201 245.38 670.201C357.207 670.201 448.207 581.721 448.207 472.948C448.207 351.587 298.326 133.436 245.627 60.5026Z" fill="#9966FF"/>
</svg>
