<svg width="4571" height="680" viewBox="0 0 4571 680" fill="none" xmlns="http://www.w3.org/2000/svg">
<path d="M2039.5 369.4V250H2084.5V371.8C2084.5 405.1 2096.8 423.1 2125.6 423.1C2154.7 423.1 2167 405.1 2167 371.8V250H2212V369.4C2212 429.1 2182.3 461.8 2125.6 461.8C2069.2 461.8 2039.5 429.1 2039.5 369.4ZM2254.17 415.9V341.5H2228.67V305.8H2254.17V262.6H2296.47V305.8H2331.87V341.5H2296.47V409C2296.47 419.8 2300.67 424.3 2311.77 424.3H2332.77V460H2298.27C2268.87 460 2254.17 445.3 2254.17 415.9ZM2373.65 289.3C2359.85 289.3 2349.05 279.1 2349.05 265.6C2349.05 251.8 2359.85 241.6 2373.65 241.6C2387.45 241.6 2398.25 251.8 2398.25 265.6C2398.25 279.1 2387.45 289.3 2373.65 289.3ZM2352.35 460V305.8H2394.95V460H2352.35ZM2424.13 460V250H2466.43V460H2424.13ZM2488.7 408.7H2528.9C2530.4 422.2 2542.1 431.5 2562.8 431.5C2580.5 431.5 2591.3 425.8 2591.3 415C2591.3 402.4 2580.8 401.5 2555.9 398.2C2519.9 394 2492 385.9 2492 354.1C2492 323.5 2518.7 303.4 2558.3 303.7C2599.7 303.7 2628.2 322 2630.3 353.5H2589.8C2588.6 341.2 2576.9 333.7 2559.8 333.7C2543.3 333.7 2532.5 339.7 2532.5 349.6C2532.5 361.3 2545.7 362.5 2567.9 365.2C2603.3 368.8 2632.7 376.9 2632.7 411.7C2632.7 442.3 2603.9 461.8 2562.5 461.8C2519.6 461.8 2490.5 441.7 2488.7 408.7Z" fill="#74DFDD"/>
<path fill-rule="evenodd" clip-rule="evenodd" d="M2147.29 641.381H2170.26L2148.06 558.271L2163.89 530.702H2140.67L2130.89 494H2108.24L2023 641.381H2048.73L2116.16 525.113L2124.27 555.19L2074.47 641.381H2100.2L2132.38 585.719L2147.3 641.381L2147.29 641.381ZM2203.14 641.515V530.58H2180.68V641.515H2203.14ZM2295.59 641.648V566.637L2272.94 566.832V570.814C2266.52 566.881 2259.1 564.859 2251.58 564.969C2246.63 564.823 2241.71 565.699 2237.12 567.526C2232.53 569.353 2228.36 572.105 2224.87 575.599C2221.39 579.094 2218.65 583.271 2216.84 587.862C2215.02 592.453 2214.17 597.372 2214.33 602.304C2214.6 611.973 2218.65 621.142 2225.62 627.864C2232.58 634.586 2241.9 638.3 2251.58 638.227C2259.12 638.361 2266.53 636.339 2272.94 632.381V641.515C2273.14 643.779 2272.85 646.069 2272.07 648.2C2271.31 650.343 2270.06 652.292 2268.46 653.899C2266.85 655.506 2264.91 656.748 2262.77 657.528C2260.63 658.307 2258.35 658.612 2256.07 658.416C2246.74 658.416 2239.73 654.813 2238.83 646.909H2216.31C2217.86 666.185 2233.17 679.179 2255.3 679.179C2277.44 679.179 2295.58 664.907 2295.58 641.648H2295.59ZM2272.94 592.538V610.852C2271.09 613.726 2268.49 616.052 2265.45 617.611C2262.39 619.157 2258.98 619.864 2255.57 619.669C2250.81 619.742 2246.21 617.976 2242.73 614.749C2239.24 611.522 2237.14 607.065 2236.86 602.316C2236.71 599.82 2237.09 597.311 2237.98 594.973C2238.86 592.635 2240.24 590.504 2242.01 588.739C2243.77 586.961 2245.9 585.585 2248.24 584.696C2250.58 583.807 2253.09 583.417 2255.58 583.551C2259.01 583.454 2262.4 584.221 2265.44 585.804C2268.48 587.375 2271.06 589.701 2272.95 592.55L2272.94 592.538ZM2385.89 603.205C2385.94 611.157 2383.63 618.938 2379.24 625.575C2374.86 632.211 2368.6 637.387 2361.26 640.455C2353.92 643.524 2345.83 644.352 2338.02 642.817C2330.22 641.284 2323.05 637.472 2317.41 631.87C2311.77 626.257 2307.93 619.096 2306.38 611.303C2304.82 603.51 2305.62 595.424 2308.67 588.081C2311.71 580.738 2316.88 574.467 2323.51 570.071C2330.13 565.663 2337.91 563.325 2345.88 563.361C2351.18 563.167 2356.46 564.056 2361.39 565.992C2366.32 567.928 2370.82 570.85 2374.57 574.589C2378.32 578.327 2381.27 582.796 2383.21 587.728C2385.16 592.648 2386.08 597.92 2385.89 603.217V603.205ZM2364.02 603.205C2364.17 600.721 2363.8 598.237 2362.96 595.899C2362.11 593.561 2360.8 591.418 2359.09 589.603C2357.39 587.789 2355.32 586.352 2353.04 585.366C2350.75 584.379 2348.29 583.868 2345.79 583.868C2343.3 583.868 2340.84 584.379 2338.55 585.366C2336.26 586.352 2334.2 587.789 2332.5 589.603C2330.79 591.418 2329.46 593.561 2328.62 595.899C2327.77 598.237 2327.41 600.721 2327.56 603.205C2327.42 605.689 2327.78 608.174 2328.62 610.511C2329.48 612.85 2330.79 614.993 2332.5 616.807C2334.2 618.622 2336.26 620.058 2338.55 621.045C2340.84 622.031 2343.3 622.543 2345.79 622.543C2348.29 622.543 2350.75 622.031 2353.04 621.045C2355.33 620.058 2357.39 618.622 2359.09 616.807C2360.8 614.993 2362.12 612.862 2362.96 610.511C2363.82 608.174 2364.18 605.689 2364.02 603.205ZM2526.4 641.381V566.82H2504.28V570.997C2497.86 566.978 2490.42 564.883 2482.85 564.957C2472.85 565.529 2463.44 569.901 2456.56 577.182C2449.68 584.464 2445.84 594.097 2445.84 604.106C2445.84 614.116 2449.68 623.748 2456.56 631.018C2463.44 638.3 2472.84 642.671 2482.85 643.244C2490.42 643.318 2497.86 641.222 2504.28 637.204V641.381H2526.4ZM2504.08 592.855V615.602C2502.1 618.451 2499.41 620.74 2496.28 622.25C2493.14 623.748 2489.67 624.406 2486.21 624.162C2480.91 624.162 2475.85 622.068 2472.11 618.329C2468.37 614.591 2466.26 609.525 2466.26 604.24C2466.26 598.955 2468.37 593.89 2472.11 590.151C2475.85 586.413 2480.92 584.318 2486.21 584.318C2489.68 584.063 2493.15 584.72 2496.28 586.218C2499.41 587.716 2502.1 590.005 2504.08 592.867V592.855ZM2617.64 601.086V641.515H2595.57V603.717C2595.57 591.442 2589.52 585.073 2578.66 585.073C2575.3 585.341 2572.02 586.328 2569.05 587.959C2566.09 589.591 2563.51 591.82 2561.48 594.523V641.503H2539.34V566.941H2561.66V572.531C2567.75 567.611 2575.37 564.969 2583.21 565.078C2603.1 565.078 2617.64 579.021 2617.64 601.074V601.086ZM2707.77 530.58V641.515H2685.12V637.338C2678.71 641.369 2671.28 643.463 2663.7 643.377C2653.71 642.805 2644.31 638.434 2637.41 631.152C2630.53 623.87 2626.7 614.238 2626.7 604.228C2626.7 594.218 2630.53 584.586 2637.41 577.304C2644.29 570.022 2653.69 565.651 2663.7 565.078C2671.28 564.993 2678.72 567.088 2685.12 571.118V530.556H2707.77V530.58ZM2685.12 615.614V592.672C2683.11 589.871 2680.42 587.618 2677.31 586.133C2674.19 584.647 2670.74 583.977 2667.3 584.184C2661.97 584.184 2656.86 586.303 2653.1 590.054C2649.33 593.817 2647.22 598.919 2647.22 604.228C2647.22 609.537 2649.33 614.652 2653.1 618.402C2656.86 622.165 2661.96 624.272 2667.3 624.272C2670.75 624.467 2674.21 623.772 2677.33 622.25C2680.45 620.728 2683.13 618.439 2685.11 615.589V615.614H2685.12ZM2428.39 588.507C2432.41 586.693 2436.76 585.743 2441.17 585.731V566.832C2437.18 566.235 2433.12 566.454 2429.22 567.453C2425.32 568.464 2421.66 570.229 2418.45 572.677V567.149H2396.13V641.26H2417.88V596.264C2420.79 592.964 2424.39 590.322 2428.39 588.495V588.507Z" fill="white"/>
<path d="M43.3245 524.348V98.6585H175.486V159.542H109.158V463.465H175.486V524.348H43.3245ZM1892.99 98.6585V524.348H1760.83V463.465H1827.16V159.542H1760.83V98.6585H1892.99Z" fill="#2ECFCC"/>
<path d="M448.264 401.096H456.183V460H420.544C384.41 460 373.025 442.675 373.52 418.421C355.701 446.635 329.961 462.97 290.362 462.97C235.419 462.97 195.82 436.736 195.82 388.227C195.82 334.273 236.409 303.584 312.637 303.584H363.126V291.209C363.126 268.44 346.791 253.59 317.587 253.59C290.362 253.59 272.048 265.965 269.078 284.774H201.759C206.709 235.275 252.248 202.606 319.567 202.606C390.845 202.606 431.929 234.285 431.929 295.169V385.257C431.929 398.621 437.374 401.096 448.264 401.096ZM363.126 355.062V350.113H312.142C282.937 350.113 266.108 361.992 266.108 383.277C266.108 401.096 280.463 412.481 303.727 412.481C340.356 412.481 362.631 389.712 363.126 355.062ZM483.183 460V113.508H552.977V460H483.183ZM788.719 240.72L794.659 205.576H856.037V452.575C856.037 515.439 817.428 561.968 719.915 561.968C649.132 561.968 600.623 529.793 597.158 470.89H667.447C673.882 495.144 693.186 509.004 725.36 509.004C764.464 509.004 787.729 489.699 787.729 450.1V423.371C770.899 444.655 745.655 458.515 710.016 458.515C641.707 459.01 591.713 409.016 591.713 330.313C591.713 252.6 641.707 202.111 709.521 202.111C746.15 202.111 771.889 218.446 788.719 240.72ZM725.36 402.581C763.474 402.581 787.234 373.377 787.234 331.303C787.234 288.734 763.474 258.54 725.36 258.54C687.246 258.54 662.992 288.239 662.992 330.808C662.992 373.377 687.246 402.581 725.36 402.581ZM1028.94 462.97C947.761 462.97 894.797 410.996 894.797 332.788C894.797 254.58 947.761 202.606 1028.94 202.606C1110.12 202.606 1163.08 254.58 1163.08 332.788C1163.08 411.491 1110.12 462.97 1028.94 462.97ZM1028.94 406.046C1068.04 406.046 1092.3 375.852 1092.3 332.788C1092.3 289.724 1068.04 259.53 1028.94 259.53C989.835 259.53 966.075 289.724 966.075 332.788C966.075 375.852 989.835 406.046 1028.94 406.046ZM1201.5 460V113.508H1271.29V313.483L1370.78 205.576H1449.49L1357.91 305.564L1454.44 460H1373.75L1309.4 357.042L1271.29 398.126V460H1201.5ZM1511.69 178.352C1488.92 178.352 1471.1 161.522 1471.1 139.248C1471.1 116.478 1488.92 99.6485 1511.69 99.6485C1534.46 99.6485 1552.28 116.478 1552.28 139.248C1552.28 161.522 1534.46 178.352 1511.69 178.352ZM1476.54 460V205.576H1546.83V460H1476.54ZM1613.29 387.237V264.48H1571.21V205.576H1613.29V134.298H1683.08V205.576H1741.49V264.48H1683.08V375.852C1683.08 393.672 1690.01 401.096 1708.33 401.096H1742.98V460H1686.05C1637.54 460 1613.29 435.746 1613.29 387.237Z" fill="white"/>
</svg>
