<svg width="1848" height="463" viewBox="0 0 1848 463" fill="none" xmlns="http://www.w3.org/2000/svg">
<path d="M1.895e-05 13.8597H132.162V74.7433H65.3385V398.466H132.162V459.349H1.895e-05V13.8597ZM1847.72 459.349H1715.56V398.466H1782.38V74.7433H1715.56V13.8597H1847.72V459.349Z" fill="#A2EAE8"/>
<path d="M412.376 301.448V360.352H376.736C344.562 360.352 328.723 346.492 329.712 318.773C320.308 333.622 308.923 344.512 295.558 351.937C281.699 359.857 265.364 363.321 246.554 363.321C217.845 363.321 195.076 356.887 177.751 344.017C160.426 331.147 152.012 312.338 152.012 288.578C152.012 261.849 161.911 241.059 181.711 226.21C201.511 211.36 230.715 203.935 268.829 203.935H319.318V191.561C319.318 180.176 314.863 171.266 306.448 164.336C297.538 157.406 286.154 153.941 271.799 153.941C258.929 153.941 248.039 156.911 240.12 162.356C231.705 168.296 226.755 175.721 225.27 185.126H157.952C159.932 159.386 171.811 139.092 192.601 124.737C213.39 110.382 240.615 102.958 275.264 102.958C310.903 102.958 338.622 110.877 358.422 126.717C378.221 142.557 388.121 165.821 388.121 195.52V285.113C388.121 291.548 389.111 296.003 392.081 297.983C394.556 300.458 398.516 301.448 404.456 301.448H412.376ZM319.318 250.464H268.334C253.484 250.464 242.1 253.434 234.18 259.374C226.26 265.314 222.3 273.234 222.3 283.628C222.3 292.538 225.27 299.963 232.2 304.913C239.13 310.358 248.039 312.833 259.919 312.833C277.739 312.833 292.093 307.883 302.983 297.488C313.378 287.093 318.823 273.234 319.318 255.414V250.464ZM439.376 13.8597H509.169V360.352H439.376V13.8597ZM812.229 105.928V352.927C812.229 386.586 800.845 412.82 779.065 432.62C756.791 452.419 722.637 462.319 676.108 462.319C639.973 462.319 610.769 454.399 588.99 438.56C566.715 422.72 554.835 400.446 553.35 371.241H623.639C626.609 383.616 633.044 393.021 642.943 399.456C652.843 406.385 665.713 409.355 681.552 409.355C701.352 409.355 716.697 404.406 727.586 394.506C738.476 384.606 743.921 370.251 743.921 350.452V323.722C725.111 347.482 698.877 358.867 665.218 358.867C642.448 358.867 622.649 353.917 604.829 343.027C587.01 332.632 572.655 317.783 562.755 298.478C552.856 279.173 547.906 256.404 547.906 230.665C547.906 205.42 552.856 183.146 562.755 163.346C572.655 144.042 587.01 129.192 604.829 118.302C622.649 107.908 642.943 102.463 665.713 102.463C698.877 102.463 725.111 115.332 744.911 141.072L750.851 105.928H812.229ZM726.596 283.133C737.486 270.264 743.426 252.939 743.426 231.655C743.426 210.37 737.486 193.046 726.596 179.186C715.212 165.821 700.362 158.891 681.552 158.891C662.743 158.891 647.398 165.821 636.014 179.186C624.629 192.551 619.184 209.875 619.184 231.16C619.184 252.939 624.629 270.264 636.014 283.133C647.398 296.498 662.743 302.933 681.552 302.933C700.362 302.933 715.212 296.498 726.596 283.133ZM914.348 347.482C894.053 336.592 878.214 321.247 867.324 301.448C856.434 281.648 850.989 258.879 850.989 233.14C850.989 207.4 856.434 184.631 867.324 164.831C878.214 145.032 894.053 130.182 914.348 119.292C934.642 108.403 958.402 102.958 985.131 102.958C1011.86 102.958 1035.12 108.403 1055.42 119.292C1075.71 130.182 1091.55 145.032 1102.44 164.831C1113.33 184.631 1119.27 207.4 1119.27 233.14C1119.27 259.374 1113.33 282.143 1102.44 301.943C1091.55 321.742 1075.71 336.592 1055.42 347.482C1035.12 358.372 1011.86 363.321 985.131 363.321C958.402 363.321 934.642 358.372 914.348 347.482ZM1031.17 286.103C1042.55 272.739 1048.49 254.919 1048.49 233.14C1048.49 211.36 1042.55 194.035 1031.17 180.176C1019.78 166.811 1004.44 159.881 985.131 159.881C965.827 159.881 950.482 166.811 939.097 180.176C927.712 194.035 922.268 211.36 922.268 233.14C922.268 254.919 927.712 272.739 939.097 286.103C950.482 299.963 965.827 306.398 985.131 306.398C1004.44 306.398 1019.78 299.963 1031.17 286.103ZM1157.69 13.8597H1227.48V214.33L1327.47 105.928H1405.68L1315.09 205.42L1410.63 360.352H1329.94L1265.6 257.394L1227.48 298.478V360.352H1157.69V13.8597ZM1499.49 11.3848C1506.91 18.8096 1510.87 28.2144 1510.87 39.1041C1510.87 50.4889 1506.91 59.8936 1499.49 67.3185C1491.57 75.2383 1482.17 78.7032 1470.78 78.7032C1458.9 78.7032 1449.5 75.2383 1441.58 67.3185C1433.66 59.8936 1430.19 50.4889 1430.19 39.1041C1430.19 28.2144 1433.66 18.8096 1441.58 11.3848C1449.5 3.95999 1458.9 7.15633e-05 1470.78 7.15633e-05C1482.17 7.15633e-05 1491.57 3.95999 1499.49 11.3848ZM1435.64 105.928H1505.43V360.352H1435.64V105.928ZM1570.4 164.831H1528.33V105.928H1570.4V34.6492H1640.19V105.928H1698.11V164.831H1640.19V276.204C1640.19 285.113 1641.68 291.548 1645.64 295.508C1649.6 299.468 1656.03 301.448 1664.94 301.448H1701.08V360.352H1643.16C1594.65 360.352 1570.4 336.097 1570.4 287.588V164.831Z" fill="white"/>
</svg>
