<svg width="1850" height="464" viewBox="0 0 1850 464" fill="none" xmlns="http://www.w3.org/2000/svg">
<path d="M0.000263091 425.69V0.000342121H132.162V60.8839H65.8337V364.807H132.162V425.69H0.000263091ZM1849.67 0.000342121V425.69H1717.51V364.807H1783.83V60.8839H1717.51V0.000342121H1849.67Z" fill="#A9A9F6"/>
<path d="M404.939 302.438H412.859V361.342H377.22C341.086 361.342 329.701 344.017 330.196 319.763C312.377 347.977 286.637 364.312 247.038 364.312C192.094 364.312 152.495 338.077 152.495 289.568C152.495 235.615 193.084 204.925 269.313 204.925H319.801V192.551C319.801 169.781 303.467 154.932 274.262 154.932C247.038 154.932 228.724 167.306 225.754 186.116H158.435C163.385 136.617 208.924 103.948 276.242 103.948C347.521 103.948 388.605 135.627 388.605 196.511V286.599C388.605 299.963 394.05 302.438 404.939 302.438ZM319.801 256.404V251.454H268.818C239.613 251.454 222.784 263.334 222.784 284.619C222.784 302.438 237.138 313.823 260.403 313.823C297.032 313.823 319.306 291.053 319.801 256.404ZM439.859 361.342V14.85H509.653V361.342H439.859ZM745.395 142.062L751.334 106.918H812.713V353.917C812.713 416.78 774.104 463.309 676.591 463.309C605.808 463.309 557.299 431.135 553.834 372.232H624.122C630.557 396.486 649.862 410.346 682.036 410.346C721.14 410.346 744.405 391.041 744.405 351.442V324.713C727.575 345.997 702.331 359.857 666.691 359.857C598.383 360.352 548.389 310.358 548.389 231.655C548.389 153.942 598.383 103.453 666.196 103.453C702.826 103.453 728.565 119.787 745.395 142.062ZM682.036 303.923C720.15 303.923 743.91 274.719 743.91 232.645C743.91 190.076 720.15 159.882 682.036 159.882C643.922 159.882 619.668 189.581 619.668 232.15C619.668 274.719 643.922 303.923 682.036 303.923ZM985.615 364.312C904.437 364.312 851.473 312.338 851.473 234.13C851.473 155.922 904.437 103.948 985.615 103.948C1066.79 103.948 1119.76 155.922 1119.76 234.13C1119.76 312.833 1066.79 364.312 985.615 364.312ZM985.615 307.388C1024.72 307.388 1048.97 277.194 1048.97 234.13C1048.97 191.066 1024.72 160.872 985.615 160.872C946.511 160.872 922.751 191.066 922.751 234.13C922.751 277.194 946.511 307.388 985.615 307.388ZM1158.17 361.342V14.85H1227.97V214.825L1327.46 106.918H1406.16L1314.59 206.905L1411.11 361.342H1330.43L1266.08 258.384L1227.97 299.468V361.342H1158.17ZM1468.36 79.6935C1445.59 79.6935 1427.77 62.8638 1427.77 40.5894C1427.77 17.8199 1445.59 0.990306 1468.36 0.990306C1491.13 0.990306 1508.95 17.8199 1508.95 40.5894C1508.95 62.8638 1491.13 79.6935 1468.36 79.6935ZM1433.22 361.342V106.918H1503.51V361.342H1433.22ZM1569.96 288.579V165.821H1527.89V106.918H1569.96V35.6395H1639.76V106.918H1698.17V165.821H1639.76V277.194C1639.76 295.013 1646.69 302.438 1665 302.438H1699.65V361.342H1642.73C1594.22 361.342 1569.96 337.087 1569.96 288.579Z" fill="#2D2DF1"/>
</svg>
