<svg width="4571" height="569" viewBox="0 0 4571 569" fill="none" xmlns="http://www.w3.org/2000/svg">
<path d="M2034.2 379.5L2085.65 380.2C2087.4 404 2106.3 420.45 2136.4 420.45C2160.55 420.45 2178.4 409.95 2178.4 390.7C2178.4 370.05 2158.45 365.85 2117.5 357.8C2076.2 350.1 2039.8 336.8 2039.8 287.1C2039.8 243.7 2075.85 212.9 2131.15 212.9C2188.9 212.9 2225.65 243 2226.35 289.9H2174.9C2172.45 269.25 2156.7 254.9 2131.15 254.9C2108.75 254.9 2092.65 264.35 2092.65 283.25C2092.65 303.2 2111.9 307.4 2152.5 315.1C2194.5 322.8 2231.6 335.4 2231.25 384.75C2230.9 430.6 2193.1 462.1 2135.7 462.1C2073.4 462.1 2034.55 429.2 2034.2 379.5ZM2378.95 370.05V280.1H2428.3V460H2384.55L2380 438.3C2368.45 452.3 2352.7 462.1 2327.15 462.1C2290.05 462.1 2255.75 443.55 2255.75 379.85V280.1H2305.1V373.2C2305.1 405.4 2315.6 421.15 2340.1 421.15C2364.6 421.15 2378.95 403.3 2378.95 370.05ZM2566.21 278C2614.51 278 2649.51 312.65 2649.51 369.7C2649.51 425.35 2614.51 462.1 2565.86 462.1C2539.96 462.1 2522.11 450.9 2510.56 435.5L2505.66 460H2462.61V215H2511.96V302.85C2523.86 288.5 2541.36 278 2566.21 278ZM2555.01 421.85C2581.96 421.85 2599.46 400.85 2599.46 370.05C2599.46 339.25 2581.96 318.25 2555.01 318.25C2528.06 318.25 2511.26 339.25 2511.26 369.7C2511.26 400.5 2528.06 421.85 2555.01 421.85ZM2667.15 400.15H2714.05C2715.8 415.9 2729.45 426.75 2753.6 426.75C2774.25 426.75 2786.85 420.1 2786.85 407.5C2786.85 392.8 2774.6 391.75 2745.55 387.9C2703.55 383 2671 373.55 2671 336.45C2671 300.75 2702.15 277.3 2748.35 277.65C2796.65 277.65 2829.9 299 2832.35 335.75H2785.1C2783.7 321.4 2770.05 312.65 2750.1 312.65C2730.85 312.65 2718.25 319.65 2718.25 331.2C2718.25 344.85 2733.65 346.25 2759.55 349.4C2800.85 353.6 2835.15 363.05 2835.15 403.65C2835.15 439.35 2801.55 462.1 2753.25 462.1C2703.2 462.1 2669.25 438.65 2667.15 400.15ZM2945.85 462.1C2888.8 462.1 2854.15 426.75 2854.15 370.05C2854.15 314.4 2890.55 278 2947.6 278C2996.6 278 3027.05 304.6 3034.05 347.3H2982.6C2978.4 329.45 2966.15 318.25 2946.9 318.25C2921 318.25 2904.55 339.6 2904.55 370.05C2904.55 400.85 2921 421.85 2946.9 421.85C2966.15 421.85 2979.1 410.3 2982.6 392.1H3034.4C3027.4 435.15 2994.85 462.1 2945.85 462.1ZM3161.56 280.1H3169.96V324.9H3150.36C3120.96 324.9 3109.76 344.5 3109.76 371.8V460H3060.41V280.1H3105.21L3109.76 307.05C3119.56 290.95 3133.56 280.1 3161.56 280.1ZM3216.86 260.85C3200.76 260.85 3188.16 248.95 3188.16 233.2C3188.16 217.1 3200.76 205.2 3216.86 205.2C3232.96 205.2 3245.56 217.1 3245.56 233.2C3245.56 248.95 3232.96 260.85 3216.86 260.85ZM3192.01 460V280.1H3241.71V460H3192.01ZM3379.35 278C3427.65 278 3462.65 312.65 3462.65 369.7C3462.65 425.35 3427.65 462.1 3379 462.1C3353.1 462.1 3335.25 450.9 3323.7 435.5L3318.8 460H3275.75V215H3325.1V302.85C3337 288.5 3354.5 278 3379.35 278ZM3368.15 421.85C3395.1 421.85 3412.6 400.85 3412.6 370.05C3412.6 339.25 3395.1 318.25 3368.15 318.25C3341.2 318.25 3324.4 339.25 3324.4 369.7C3324.4 400.5 3341.2 421.85 3368.15 421.85ZM3578.95 462.1C3519.1 462.1 3483.05 426.05 3483.05 370.4C3483.05 314.4 3519.8 278 3575.45 278C3629.35 278 3665.75 311.6 3666.45 364.45C3666.45 369.7 3666.1 375.65 3665.05 381.25H3534.5V383.7C3535.55 409.25 3552 424.65 3576.85 424.65C3596.8 424.65 3610.8 415.9 3615 399.1H3663.65C3658.05 434.1 3626.9 462.1 3578.95 462.1ZM3535.55 349.05H3616.75C3613.25 327 3598.2 314.75 3575.8 314.75C3554.45 314.75 3538.35 327.7 3535.55 349.05ZM3794.57 280.1H3802.97V324.9H3783.37C3753.97 324.9 3742.77 344.5 3742.77 371.8V460H3693.42V280.1H3738.22L3742.77 307.05C3752.57 290.95 3766.57 280.1 3794.57 280.1Z" fill="var(--logo-accent, #74DFDD)"/>
<path d="M43.3245 524.348V98.6585H175.486V159.542H109.158V463.465H175.486V524.348H43.3245ZM1892.99 98.6585V524.348H1760.83V463.465H1827.16V159.542H1760.83V98.6585H1892.99Z" fill="var(--logo-accent, #2ECFCC)"/>
<path d="M448.264 401.096H456.183V460H420.544C384.41 460 373.025 442.675 373.52 418.421C355.701 446.635 329.961 462.97 290.362 462.97C235.419 462.97 195.82 436.736 195.82 388.227C195.82 334.273 236.409 303.584 312.637 303.584H363.126V291.209C363.126 268.44 346.791 253.59 317.587 253.59C290.362 253.59 272.048 265.965 269.078 284.774H201.759C206.709 235.275 252.248 202.606 319.567 202.606C390.845 202.606 431.929 234.285 431.929 295.169V385.257C431.929 398.621 437.374 401.096 448.264 401.096ZM363.126 355.062V350.113H312.142C282.937 350.113 266.108 361.992 266.108 383.277C266.108 401.096 280.463 412.481 303.727 412.481C340.356 412.481 362.631 389.712 363.126 355.062ZM483.183 460V113.508H552.977V460H483.183ZM788.719 240.72L794.659 205.576H856.037V452.575C856.037 515.439 817.428 561.968 719.915 561.968C649.132 561.968 600.623 529.793 597.158 470.89H667.447C673.882 495.144 693.186 509.004 725.36 509.004C764.464 509.004 787.729 489.699 787.729 450.1V423.371C770.899 444.655 745.655 458.515 710.016 458.515C641.707 459.01 591.713 409.016 591.713 330.313C591.713 252.6 641.707 202.111 709.521 202.111C746.15 202.111 771.889 218.446 788.719 240.72ZM725.36 402.581C763.474 402.581 787.234 373.377 787.234 331.303C787.234 288.734 763.474 258.54 725.36 258.54C687.246 258.54 662.992 288.239 662.992 330.808C662.992 373.377 687.246 402.581 725.36 402.581ZM1028.94 462.97C947.761 462.97 894.797 410.996 894.797 332.788C894.797 254.58 947.761 202.606 1028.94 202.606C1110.12 202.606 1163.08 254.58 1163.08 332.788C1163.08 411.491 1110.12 462.97 1028.94 462.97ZM1028.94 406.046C1068.04 406.046 1092.3 375.852 1092.3 332.788C1092.3 289.724 1068.04 259.53 1028.94 259.53C989.835 259.53 966.075 289.724 966.075 332.788C966.075 375.852 989.835 406.046 1028.94 406.046ZM1201.5 460V113.508H1271.29V313.483L1370.78 205.576H1449.49L1357.91 305.564L1454.44 460H1373.75L1309.4 357.042L1271.29 398.126V460H1201.5ZM1511.69 178.352C1488.92 178.352 1471.1 161.522 1471.1 139.248C1471.1 116.478 1488.92 99.6485 1511.69 99.6485C1534.46 99.6485 1552.28 116.478 1552.28 139.248C1552.28 161.522 1534.46 178.352 1511.69 178.352ZM1476.54 460V205.576H1546.83V460H1476.54ZM1613.29 387.237V264.48H1571.21V205.576H1613.29V134.298H1683.08V205.576H1741.49V264.48H1683.08V375.852C1683.08 393.672 1690.01 401.096 1708.33 401.096H1742.98V460H1686.05C1637.54 460 1613.29 435.746 1613.29 387.237Z" fill="currentColor"/>
</svg>
