<svg width="2759" height="806" viewBox="0 0 2759 806" fill="none" xmlns="http://www.w3.org/2000/svg">
<path d="M54.1612 524.348V98.6585H186.323V159.542H119.995V463.465H186.323V524.348H54.1612ZM2704.8 98.6585V524.348H2572.64V463.465H2638.97V159.542H2572.64V98.6585H2704.8Z" fill="var(--logo-accent, #2ECFCC)"/>
<path d="M234.871 387.237V264.48H192.797V205.576H234.871V134.298H304.664V205.576H363.073V264.48H304.664V375.852C304.664 393.672 311.594 401.096 329.908 401.096H364.557V460H307.634C259.125 460 234.871 435.746 234.871 387.237ZM470.118 461.485L372.11 205.576H446.358L508.232 386.742L568.62 205.576H643.364L530.506 496.134C514.667 538.208 501.797 558.998 462.198 558.998H394.384V500.094H432.993C450.813 500.094 456.753 495.639 463.683 478.315L470.118 461.485ZM813.094 202.606C881.898 202.111 931.396 253.095 931.396 333.283C931.396 412.481 881.898 462.97 813.589 462.97C778.445 462.97 753.201 448.615 736.866 427.826V558.998H667.073V205.576H727.956L734.886 240.72C751.221 218.941 776.96 202.606 813.094 202.606ZM797.75 406.046C835.864 406.046 860.613 375.852 860.613 332.293C860.613 289.229 835.864 259.53 797.75 259.53C759.635 259.53 735.876 289.229 735.876 332.293C735.876 375.852 759.635 406.046 797.75 406.046ZM1095.88 462.97C1011.24 462.97 960.257 411.986 960.257 333.283C960.257 254.085 1012.23 202.606 1090.93 202.606C1167.16 202.606 1218.64 250.125 1219.63 324.868C1219.63 332.293 1219.14 340.708 1217.65 348.628H1033.02V352.093C1034.5 388.227 1057.77 410.006 1092.91 410.006C1121.13 410.006 1140.93 397.631 1146.87 373.872H1215.67C1207.75 423.371 1163.7 462.97 1095.88 462.97ZM1034.5 303.089H1149.34C1144.39 271.904 1123.11 254.58 1091.43 254.58C1061.23 254.58 1038.46 272.894 1034.5 303.089ZM1243.96 375.357H1310.29C1312.76 397.631 1332.07 412.976 1366.22 412.976C1395.42 412.976 1413.24 403.571 1413.24 385.752C1413.24 364.962 1395.92 363.477 1354.84 358.032C1295.44 351.103 1249.4 337.738 1249.4 285.269C1249.4 234.78 1293.46 201.616 1358.8 202.111C1427.1 202.111 1474.13 232.305 1477.59 284.279H1410.77C1408.79 263.985 1389.48 251.61 1361.27 251.61C1334.05 251.61 1316.23 261.51 1316.23 277.844C1316.23 297.149 1338.01 299.129 1374.64 303.584C1433.04 309.524 1481.55 322.888 1481.55 380.307C1481.55 430.796 1434.03 462.97 1365.73 462.97C1294.94 462.97 1246.93 429.806 1243.96 375.357ZM1638.1 462.97C1557.42 462.97 1508.42 412.976 1508.42 332.788C1508.42 254.085 1559.9 202.606 1640.58 202.606C1709.88 202.606 1752.94 240.225 1762.84 300.614H1690.08C1684.14 275.369 1666.81 259.53 1639.59 259.53C1602.96 259.53 1579.7 289.724 1579.7 332.788C1579.7 376.347 1602.96 406.046 1639.59 406.046C1666.81 406.046 1685.13 389.712 1690.08 363.972H1763.34C1753.44 424.856 1707.4 462.97 1638.1 462.97ZM1943.18 205.576H1955.06V268.935H1927.34C1885.76 268.935 1869.93 296.654 1869.93 335.263V460H1800.13V205.576H1863.49L1869.93 243.69C1883.78 220.921 1903.58 205.576 1943.18 205.576ZM2021.38 178.352C1998.61 178.352 1980.79 161.522 1980.79 139.248C1980.79 116.478 1998.61 99.6485 2021.38 99.6485C2044.15 99.6485 2061.97 116.478 2061.97 139.248C2061.97 161.522 2044.15 178.352 2021.38 178.352ZM1986.24 460V205.576H2056.52V460H1986.24ZM2250.69 202.606C2319.49 202.111 2368.99 253.095 2368.99 333.283C2368.99 412.481 2319.49 462.97 2251.18 462.97C2216.04 462.97 2190.79 448.615 2174.46 427.826V558.998H2104.67V205.576H2165.55L2172.48 240.72C2188.81 218.941 2214.55 202.606 2250.69 202.606ZM2235.34 406.046C2273.46 406.046 2298.21 375.852 2298.21 332.293C2298.21 289.229 2273.46 259.53 2235.34 259.53C2197.23 259.53 2173.47 289.229 2173.47 332.293C2173.47 375.852 2197.23 406.046 2235.34 406.046ZM2425.1 387.237V264.48H2383.02V205.576H2425.1V134.298H2494.89V205.576H2553.3V264.48H2494.89V375.852C2494.89 393.672 2501.82 401.096 2520.13 401.096H2554.78V460H2497.86C2449.35 460 2425.1 435.746 2425.1 387.237Z" fill="currentColor"/>
<path fill-rule="evenodd" clip-rule="evenodd" d="M2167.29 767.381H2190.26L2168.06 684.271L2183.89 656.702H2160.67L2150.89 620H2128.24L2043 767.381H2068.73L2136.16 651.113L2144.27 681.19L2094.47 767.381H2120.2L2152.38 711.719L2167.3 767.381L2167.29 767.381ZM2223.14 767.515V656.58H2200.68V767.515H2223.14ZM2315.59 767.648V692.637L2292.94 692.832V696.814C2286.52 692.881 2279.1 690.859 2271.58 690.969C2266.63 690.823 2261.71 691.699 2257.12 693.526C2252.53 695.353 2248.36 698.105 2244.87 701.599C2241.39 705.094 2238.65 709.271 2236.84 713.862C2235.02 718.453 2234.17 723.372 2234.33 728.304C2234.6 737.973 2238.65 747.142 2245.62 753.864C2252.58 760.586 2261.9 764.3 2271.58 764.227C2279.12 764.361 2286.53 762.339 2292.94 758.381V767.515C2293.14 769.779 2292.85 772.069 2292.07 774.2C2291.31 776.343 2290.06 778.292 2288.46 779.899C2286.85 781.506 2284.91 782.748 2282.77 783.528C2280.63 784.307 2278.35 784.612 2276.07 784.416C2266.74 784.416 2259.73 780.813 2258.83 772.909H2236.31C2237.86 792.185 2253.17 805.179 2275.3 805.179C2297.44 805.179 2315.58 790.907 2315.58 767.648H2315.59ZM2292.94 718.538V736.852C2291.09 739.726 2288.49 742.052 2285.45 743.611C2282.39 745.157 2278.98 745.864 2275.57 745.669C2270.81 745.742 2266.21 743.976 2262.73 740.749C2259.24 737.522 2257.14 733.065 2256.86 728.316C2256.71 725.82 2257.09 723.311 2257.98 720.973C2258.86 718.635 2260.24 716.504 2262.01 714.739C2263.77 712.961 2265.9 711.585 2268.24 710.696C2270.58 709.807 2273.09 709.417 2275.58 709.551C2279.01 709.454 2282.4 710.221 2285.44 711.804C2288.48 713.375 2291.06 715.701 2292.95 718.55L2292.94 718.538ZM2405.89 729.205C2405.94 737.157 2403.63 744.938 2399.24 751.575C2394.86 758.211 2388.6 763.387 2381.26 766.455C2373.92 769.524 2365.83 770.352 2358.02 768.817C2350.22 767.284 2343.05 763.472 2337.41 757.87C2331.77 752.257 2327.93 745.096 2326.38 737.303C2324.82 729.51 2325.62 721.424 2328.67 714.081C2331.71 706.738 2336.88 700.467 2343.51 696.071C2350.13 691.663 2357.91 689.325 2365.88 689.361C2371.18 689.167 2376.46 690.056 2381.39 691.992C2386.32 693.928 2390.82 696.85 2394.57 700.589C2398.32 704.327 2401.27 708.796 2403.21 713.728C2405.16 718.648 2406.08 723.92 2405.89 729.217V729.205ZM2384.02 729.205C2384.17 726.721 2383.8 724.237 2382.96 721.899C2382.11 719.561 2380.8 717.418 2379.09 715.603C2377.39 713.789 2375.32 712.352 2373.04 711.366C2370.75 710.379 2368.29 709.868 2365.79 709.868C2363.3 709.868 2360.84 710.379 2358.55 711.366C2356.26 712.352 2354.2 713.789 2352.5 715.603C2350.79 717.418 2349.46 719.561 2348.62 721.899C2347.77 724.237 2347.41 726.721 2347.56 729.205C2347.42 731.689 2347.78 734.174 2348.62 736.511C2349.48 738.85 2350.79 740.993 2352.5 742.807C2354.2 744.622 2356.26 746.058 2358.55 747.045C2360.84 748.031 2363.3 748.543 2365.79 748.543C2368.29 748.543 2370.75 748.031 2373.04 747.045C2375.33 746.058 2377.39 744.622 2379.09 742.807C2380.8 740.993 2382.12 738.862 2382.96 736.511C2383.82 734.174 2384.18 731.689 2384.02 729.205ZM2546.4 767.381V692.82H2524.28V696.997C2517.86 692.978 2510.42 690.883 2502.85 690.957C2492.85 691.529 2483.44 695.901 2476.56 703.182C2469.68 710.464 2465.84 720.097 2465.84 730.106C2465.84 740.116 2469.68 749.748 2476.56 757.018C2483.44 764.3 2492.84 768.671 2502.85 769.244C2510.42 769.318 2517.86 767.222 2524.28 763.204V767.381H2546.4ZM2524.08 718.855V741.602C2522.1 744.451 2519.41 746.74 2516.28 748.25C2513.14 749.748 2509.67 750.406 2506.21 750.162C2500.91 750.162 2495.85 748.068 2492.11 744.329C2488.37 740.591 2486.26 735.525 2486.26 730.24C2486.26 724.955 2488.37 719.89 2492.11 716.151C2495.85 712.413 2500.92 710.318 2506.21 710.318C2509.68 710.063 2513.15 710.72 2516.28 712.218C2519.41 713.716 2522.1 716.005 2524.08 718.867V718.855ZM2637.64 727.086V767.515H2615.57V729.717C2615.57 717.442 2609.52 711.073 2598.66 711.073C2595.3 711.341 2592.02 712.328 2589.05 713.959C2586.09 715.591 2583.51 717.82 2581.48 720.523V767.503H2559.34V692.941H2581.66V698.531C2587.75 693.611 2595.37 690.969 2603.21 691.078C2623.1 691.078 2637.64 705.021 2637.64 727.074V727.086ZM2727.77 656.58V767.515H2705.12V763.338C2698.71 767.369 2691.28 769.463 2683.7 769.377C2673.71 768.805 2664.31 764.434 2657.41 757.152C2650.53 749.87 2646.7 740.238 2646.7 730.228C2646.7 720.218 2650.53 710.586 2657.41 703.304C2664.29 696.022 2673.69 691.651 2683.7 691.078C2691.28 690.993 2698.72 693.088 2705.12 697.118V656.556H2727.77V656.58ZM2705.12 741.614V718.672C2703.11 715.871 2700.42 713.618 2697.31 712.133C2694.19 710.647 2690.74 709.977 2687.3 710.184C2681.97 710.184 2676.86 712.303 2673.1 716.054C2669.33 719.817 2667.22 724.919 2667.22 730.228C2667.22 735.537 2669.33 740.652 2673.1 744.402C2676.86 748.165 2681.96 750.272 2687.3 750.272C2690.75 750.467 2694.21 749.772 2697.33 748.25C2700.45 746.728 2703.13 744.439 2705.11 741.589V741.614H2705.12ZM2448.39 714.507C2452.41 712.693 2456.76 711.743 2461.17 711.731V692.832C2457.18 692.235 2453.12 692.454 2449.22 693.453C2445.32 694.464 2441.66 696.229 2438.45 698.677V693.149H2416.13V767.26H2437.88V722.264C2440.79 718.964 2444.39 716.322 2448.39 714.495V714.507Z" fill="currentColor"/>
</svg>
