<svg width="2093" height="752" viewBox="0 0 2093 752" fill="none" xmlns="http://www.w3.org/2000/svg">
<path d="M33.5316 421.886C33.5316 397.631 51.3512 380.307 75.6056 380.307C99.365 380.307 117.68 397.631 117.68 421.886C117.68 445.645 99.365 462.97 75.6056 462.97C51.3512 462.97 33.5316 445.645 33.5316 421.886ZM202.841 524.348H137.007L277.089 98.6585H343.417L202.841 524.348ZM1529.25 460V113.508H1599.04V313.483L1698.53 205.576H1777.24L1685.66 305.564L1782.19 460H1701.5L1637.15 357.042L1599.04 398.126V460H1529.25ZM1839.44 178.352C1816.67 178.352 1798.85 161.522 1798.85 139.248C1798.85 116.478 1816.67 99.6485 1839.44 99.6485C1862.21 99.6485 1880.03 116.478 1880.03 139.248C1880.03 161.522 1862.21 178.352 1839.44 178.352ZM1804.29 460V205.576H1874.58V460H1804.29ZM1941.04 387.237V264.48H1898.96V205.576H1941.04V134.298H2010.83V205.576H2069.24V264.48H2010.83V375.852C2010.83 393.672 2017.76 401.096 2036.08 401.096H2070.73V460H2013.8C1965.29 460 1941.04 435.746 1941.04 387.237Z" fill="var(--logo-accent, #A9A9F6)"/>
<path d="M496.771 202.606C551.715 202.606 598.739 231.81 598.739 318.928V460H528.945V325.858C528.945 282.794 512.611 260.025 477.466 260.025C441.332 260.025 420.543 285.764 420.543 329.818V460H350.749V205.576H411.633L418.068 237.255C434.403 217.456 457.667 202.606 496.771 202.606ZM765.991 462.97C684.812 462.97 631.849 410.996 631.849 332.788C631.849 254.58 684.812 202.606 765.991 202.606C847.169 202.606 900.132 254.58 900.132 332.788C900.132 411.491 847.169 462.97 765.991 462.97ZM765.991 406.046C805.095 406.046 829.349 375.852 829.349 332.788C829.349 289.724 805.095 259.53 765.991 259.53C726.886 259.53 703.127 289.724 703.127 332.788C703.127 375.852 726.886 406.046 765.991 406.046ZM1123.18 237.255V113.508H1192.97V460H1132.09L1125.16 424.856C1108.33 446.635 1083.58 462.97 1046.95 462.97C978.642 462.97 928.648 412.976 928.648 332.293C928.648 253.59 978.642 202.606 1046.46 202.606C1081.6 202.606 1106.84 216.466 1123.18 237.255ZM1062.3 406.046C1100.41 406.046 1124.17 376.347 1124.17 333.283C1124.17 289.724 1100.41 259.53 1062.3 259.53C1024.18 259.53 999.927 289.229 999.927 332.788C999.927 376.347 1024.18 406.046 1062.3 406.046ZM1367.36 462.97C1282.72 462.97 1231.73 411.986 1231.73 333.283C1231.73 254.085 1283.71 202.606 1362.41 202.606C1438.64 202.606 1490.12 250.125 1491.11 324.868C1491.11 332.293 1490.61 340.708 1489.13 348.628H1304.5V352.093C1305.98 388.227 1329.24 410.006 1364.39 410.006C1392.6 410.006 1412.4 397.631 1418.34 373.872H1487.15C1479.23 423.371 1435.17 462.97 1367.36 462.97ZM1305.98 303.089H1420.82C1415.87 271.904 1394.58 254.58 1362.9 254.58C1332.71 254.58 1309.94 272.894 1305.98 303.089Z" fill="currentColor"/>
<path fill-rule="evenodd" clip-rule="evenodd" d="M1502.52 713.381H1525.49L1503.29 630.271L1519.12 602.702H1495.89L1486.12 566H1463.47L1378.23 713.381H1403.96L1471.38 597.113L1479.49 627.19L1429.7 713.381H1455.43L1487.6 657.719L1502.53 713.381L1502.52 713.381ZM1558.36 713.515V602.58H1535.91V713.515H1558.36ZM1650.81 713.648V638.637L1628.16 638.832V642.814C1621.75 638.881 1614.33 636.859 1606.81 636.969C1601.86 636.823 1596.94 637.699 1592.35 639.526C1587.76 641.353 1583.58 644.105 1580.1 647.599C1576.62 651.094 1573.88 655.271 1572.06 659.862C1570.25 664.453 1569.4 669.372 1569.55 674.304C1569.82 683.973 1573.88 693.142 1580.84 699.864C1587.81 706.586 1597.12 710.3 1606.81 710.227C1614.34 710.361 1621.76 708.339 1628.16 704.381V713.515C1628.37 715.779 1628.08 718.069 1627.3 720.2C1626.53 722.343 1625.29 724.292 1623.68 725.899C1622.08 727.506 1620.14 728.748 1618 729.528C1615.85 730.307 1613.57 730.612 1611.3 730.416C1601.97 730.416 1594.96 726.813 1594.06 718.909H1571.54C1573.09 738.185 1588.39 751.179 1610.53 751.179C1632.67 751.179 1650.8 736.907 1650.8 713.648H1650.81ZM1628.16 664.538V682.852C1626.31 685.726 1623.72 688.052 1620.67 689.611C1617.62 691.157 1614.21 691.864 1610.8 691.669C1606.04 691.742 1601.43 689.976 1597.95 686.749C1594.47 683.522 1592.36 679.065 1592.08 674.316C1591.94 671.82 1592.31 669.311 1593.2 666.973C1594.09 664.635 1595.47 662.504 1597.23 660.739C1599 658.961 1601.13 657.585 1603.47 656.696C1605.81 655.807 1608.31 655.417 1610.81 655.551C1614.23 655.454 1617.63 656.221 1620.66 657.804C1623.71 659.375 1626.29 661.701 1628.18 664.55L1628.16 664.538ZM1741.12 675.205C1741.17 683.157 1738.85 690.938 1734.47 697.575C1730.09 704.211 1723.83 709.387 1716.48 712.455C1709.14 715.524 1701.06 716.352 1693.25 714.817C1685.44 713.284 1678.27 709.472 1672.63 703.87C1667 698.257 1663.16 691.096 1661.6 683.303C1660.04 675.51 1660.85 667.424 1663.89 660.081C1666.94 652.738 1672.11 646.467 1678.73 642.071C1685.36 637.663 1693.14 635.325 1701.11 635.361C1706.4 635.167 1711.69 636.056 1716.62 637.992C1721.55 639.928 1726.04 642.85 1729.79 646.589C1733.55 650.327 1736.49 654.796 1738.44 659.728C1740.39 664.648 1741.3 669.92 1741.12 675.217V675.205ZM1719.25 675.205C1719.4 672.721 1719.03 670.237 1718.19 667.899C1717.34 665.561 1716.02 663.418 1714.32 661.603C1712.61 659.789 1710.54 658.352 1708.26 657.366C1705.98 656.379 1703.52 655.868 1701.02 655.868C1698.52 655.868 1696.06 656.379 1693.77 657.366C1691.49 658.352 1689.43 659.789 1687.72 661.603C1686.02 663.418 1684.69 665.561 1683.85 667.899C1683 670.237 1682.63 672.721 1682.79 675.205C1682.64 677.689 1683.01 680.174 1683.85 682.511C1684.7 684.85 1686.02 686.993 1687.72 688.807C1689.43 690.622 1691.49 692.058 1693.77 693.045C1696.06 694.031 1698.52 694.543 1701.02 694.543C1703.52 694.543 1705.98 694.031 1708.26 693.045C1710.55 692.058 1712.61 690.622 1714.32 688.807C1716.02 686.993 1717.35 684.862 1718.19 682.511C1719.04 680.174 1719.41 677.689 1719.25 675.205ZM1881.63 713.381V638.82H1859.51V642.997C1853.09 638.978 1845.65 636.883 1838.07 636.957C1828.08 637.529 1818.66 641.901 1811.78 649.182C1804.9 656.464 1801.07 666.097 1801.07 676.106C1801.07 686.116 1804.9 695.748 1811.78 703.018C1818.66 710.3 1828.06 714.671 1838.07 715.244C1845.65 715.318 1853.09 713.222 1859.51 709.204V713.381H1881.63ZM1859.31 664.855V687.602C1857.33 690.451 1854.63 692.74 1851.51 694.25C1848.36 695.748 1844.89 696.406 1841.44 696.162C1836.14 696.162 1831.07 694.068 1827.33 690.329C1823.6 686.591 1821.49 681.525 1821.49 676.24C1821.49 670.955 1823.6 665.89 1827.33 662.151C1831.07 658.413 1836.15 656.318 1841.44 656.318C1844.91 656.063 1848.38 656.72 1851.51 658.218C1854.63 659.716 1857.33 662.005 1859.31 664.867V664.855ZM1972.86 673.086V713.515H1950.8V675.717C1950.8 663.442 1944.75 657.073 1933.88 657.073C1930.52 657.341 1927.25 658.328 1924.28 659.959C1921.32 661.591 1918.74 663.82 1916.7 666.523V713.503H1894.56V638.941H1916.89V644.531C1922.97 639.611 1930.6 636.969 1938.44 637.078C1958.32 637.078 1972.86 651.021 1972.86 673.074V673.086ZM2063 602.58V713.515H2040.35V709.338C2033.93 713.369 2026.5 715.463 2018.93 715.377C2008.93 714.805 1999.53 710.434 1992.64 703.152C1985.76 695.87 1981.92 686.238 1981.92 676.228C1981.92 666.218 1985.76 656.586 1992.64 649.304C1999.52 642.022 2008.92 637.651 2018.93 637.078C2026.5 636.993 2033.95 639.088 2040.35 643.118V602.556H2063V602.58ZM2040.35 687.614V664.672C2038.34 661.871 2035.65 659.618 2032.53 658.133C2029.41 656.647 2025.97 655.977 2022.52 656.184C2017.2 656.184 2012.09 658.303 2008.32 662.054C2004.56 665.817 2002.44 670.919 2002.44 676.228C2002.44 681.537 2004.56 686.652 2008.32 690.402C2012.09 694.165 2017.19 696.272 2022.52 696.272C2025.98 696.467 2029.44 695.772 2032.56 694.25C2035.67 692.728 2038.35 690.439 2040.34 687.589V687.614H2040.35ZM1783.62 660.507C1787.64 658.693 1791.98 657.743 1796.39 657.731V638.832C1792.41 638.235 1788.34 638.454 1784.45 639.453C1780.55 640.464 1776.88 642.229 1773.68 644.677V639.149H1751.36V713.26H1773.11V668.264C1776.02 664.964 1779.61 662.322 1783.62 660.495V660.507Z" fill="currentColor"/>
<path d="M1186.73 629.393V640.279H1141.66V629.393H1186.73ZM1155.16 713V617.854C1155.16 613.064 1156.29 609.072 1158.54 605.879C1160.79 602.685 1163.71 600.29 1167.3 598.694C1170.89 597.097 1174.68 596.299 1178.68 596.299C1181.83 596.299 1184.41 596.553 1186.4 597.061C1188.4 597.569 1189.89 598.041 1190.87 598.476L1187.17 609.58C1186.51 609.362 1185.61 609.09 1184.45 608.764C1183.32 608.437 1181.83 608.274 1179.98 608.274C1175.74 608.274 1172.67 609.344 1170.78 611.485C1168.93 613.626 1168.01 616.765 1168.01 620.902V713H1155.16ZM1235.26 714.742C1227.71 714.742 1221.09 712.946 1215.39 709.353C1209.73 705.761 1205.3 700.735 1202.11 694.276C1198.95 687.816 1197.37 680.269 1197.37 671.632C1197.37 662.923 1198.95 655.321 1202.11 648.825C1205.3 642.33 1209.73 637.286 1215.39 633.693C1221.09 630.101 1227.71 628.305 1235.26 628.305C1242.81 628.305 1249.41 630.101 1255.07 633.693C1260.77 637.286 1265.19 642.33 1268.35 648.825C1271.54 655.321 1273.14 662.923 1273.14 671.632C1273.14 680.269 1271.54 687.816 1268.35 694.276C1265.19 700.735 1260.77 705.761 1255.07 709.353C1249.41 712.946 1242.81 714.742 1235.26 714.742ZM1235.26 703.202C1240.99 703.202 1245.71 701.733 1249.41 698.793C1253.11 695.854 1255.85 691.989 1257.63 687.199C1259.41 682.409 1260.3 677.22 1260.3 671.632C1260.3 666.044 1259.41 660.836 1257.63 656.01C1255.85 651.184 1253.11 647.283 1249.41 644.307C1245.71 641.332 1240.99 639.844 1235.26 639.844C1229.52 639.844 1224.81 641.332 1221.11 644.307C1217.4 647.283 1214.66 651.184 1212.89 656.01C1211.11 660.836 1210.22 666.044 1210.22 671.632C1210.22 677.22 1211.11 682.409 1212.89 687.199C1214.66 691.989 1217.4 695.854 1221.11 698.793C1224.81 701.733 1229.52 703.202 1235.26 703.202ZM1292.75 713V629.393H1305.16V642.021H1306.03C1307.56 637.884 1310.31 634.528 1314.31 631.951C1318.3 629.375 1322.8 628.087 1327.8 628.087C1328.75 628.087 1329.93 628.105 1331.34 628.141C1332.76 628.178 1333.83 628.232 1334.55 628.305V641.368C1334.12 641.259 1333.12 641.096 1331.56 640.878C1330.04 640.624 1328.42 640.497 1326.72 640.497C1322.65 640.497 1319.02 641.35 1315.83 643.055C1312.67 644.725 1310.17 647.047 1308.32 650.023C1306.5 652.962 1305.6 656.319 1305.6 660.093V713H1292.75Z" fill="currentColor"/>
</svg>
